<?xml version="1.0" standalone="no"?>
<!DOCTYPE svg PUBLIC "-//W3C//DTD SVG 20010904//EN"
 "http://www.w3.org/TR/2001/REC-SVG-20010904/DTD/svg10.dtd">
<svg version="1.0" xmlns="http://www.w3.org/2000/svg"
 width="275.000000pt" height="183.000000pt" viewBox="0 0 275.000000 183.000000"
 preserveAspectRatio="xMidYMid meet">
<metadata>
Created by potrace 1.10, written by Peter Selinger 2001-2011
</metadata>
<g transform="translate(0.000000,183.000000) scale(0.100000,-0.100000)"
fill="#000000" stroke="none">
<path d="M2668 1807 c16 -18 15 -18 -12 -11 -22 5 -27 4 -21 -5 5 -9 1 -12
-12 -9 -10 1 -32 -7 -50 -20 -17 -12 -37 -22 -44 -22 -6 0 -33 -17 -58 -37
-25 -21 -49 -39 -53 -39 -5 -1 -18 -2 -30 -3 -21 -2 -21 -3 -4 -10 16 -6 14
-10 -18 -31 -20 -14 -36 -29 -36 -33 0 -5 -7 -15 -15 -23 -20 -20 -19 -30 6
-53 13 -12 18 -24 13 -32 -5 -9 -2 -10 10 -6 14 6 17 3 12 -8 -4 -11 7 -22 39
-37 25 -12 43 -28 41 -34 -3 -7 4 -14 15 -17 24 -6 36 -36 19 -47 -15 -10 -60
8 -60 24 0 6 -4 5 -9 -2 -7 -11 -15 -11 -50 0 -23 8 -38 17 -34 21 3 4 -5 8
-18 8 -55 4 -92 -4 -110 -22 -10 -10 -16 -19 -12 -19 3 0 -1 -8 -9 -17 -14
-16 -27 -51 -34 -93 -9 -47 -10 -90 -3 -90 5 0 9 5 9 11 0 5 4 8 9 5 5 -3 -6
-21 -23 -39 -20 -22 -34 -30 -38 -23 -5 7 -8 4 -8 -7 0 -11 -7 -35 -17 -54
-16 -34 -17 -35 -61 -28 -61 9 -70 14 -79 38 -12 38 -12 47 4 62 8 8 12 19 9
24 -3 4 12 5 34 1 29 -5 43 -3 51 6 16 20 5 105 -16 120 -9 7 -14 18 -10 24 3
6 3 10 -2 9 -4 -1 -23 4 -42 11 l-34 13 24 14 c24 14 24 14 -5 8 -25 -5 -28
-4 -18 8 30 36 22 167 -10 167 -6 0 -5 -7 2 -15 20 -24 4 -17 -27 11 -22 21
-25 27 -13 34 8 6 11 10 5 10 -20 0 -33 -16 -33 -41 0 -23 6 -28 39 -33 42 -7
44 -12 30 -66 -5 -19 -12 -47 -15 -62 -6 -28 -40 -40 -48 -17 -2 6 -17 9 -33
7 l-30 -5 33 -8 c17 -4 32 -11 32 -16 0 -5 15 -9 34 -9 43 0 98 -38 110 -75 4
-17 12 -38 18 -48 9 -19 3 -37 -13 -37 -5 0 -9 7 -9 16 0 14 -3 14 -15 4 -21
-17 -31 -5 -14 16 17 21 13 55 -9 72 -27 21 -32 14 -32 -47 0 -43 -4 -60 -15
-65 -17 -6 -22 -101 -5 -111 25 -16 8 -31 -35 -30 -47 0 -57 12 -30 35 12 10
15 29 12 76 -2 35 -7 67 -12 71 -4 5 -5 0 -2 -9 5 -14 1 -18 -18 -18 -17 0
-25 -6 -26 -17 -5 -57 -3 -81 9 -105 15 -33 15 -41 2 -33 -6 3 -53 3 -105 -1
l-95 -7 -5 -31 c-13 -81 -12 -132 4 -156 9 -14 11 -21 4 -17 -10 6 -13 -6 -13
-52 0 -52 -3 -62 -22 -72 -24 -13 -119 -16 -150 -5 -10 3 -24 8 -32 10 -12 4
-12 16 1 82 8 43 11 89 7 103 -4 14 -6 30 -5 35 1 6 0 20 -3 32 -6 24 -33 40
-33 18 0 -7 4 -11 9 -8 4 3 8 -24 8 -60 0 -36 -4 -67 -9 -71 -13 -7 -13 -145
-1 -145 6 0 10 -6 10 -14 0 -10 -13 -16 -37 -19 -28 -3 -23 -4 20 -5 48 -2 57
1 58 16 0 9 2 13 5 7 2 -6 45 -9 109 -7 93 3 104 1 99 -13 -4 -10 -13 -14 -28
-10 -13 4 -16 3 -9 -2 8 -6 14 -40 16 -87 2 -54 8 -80 18 -87 8 -5 -80 -10
-226 -11 l-240 -3 258 -3 257 -2 0 54 c0 35 -5 58 -15 66 -26 22 -16 30 14 12
16 -9 27 -21 24 -26 -3 -5 13 -6 38 -3 24 3 263 9 532 13 322 4 487 10 487 17
0 10 -602 4 -891 -10 l-137 -6 -41 42 c-44 45 -59 87 -60 170 -1 46 1 52 14
41 8 -7 16 -24 16 -39 1 -18 3 -21 6 -8 5 18 19 19 281 14 153 -3 318 -11 367
-17 100 -14 259 -18 289 -9 11 3 -16 9 -60 12 -241 19 -259 21 -234 28 14 4
121 7 238 8 181 1 212 3 212 16 0 13 -58 15 -462 15 -255 0 -513 3 -575 7
-109 6 -112 7 -101 26 6 12 8 46 5 86 -5 47 -3 61 4 49 9 -16 32 -18 253 -18
l244 0 51 -50 51 -50 265 0 c246 0 265 1 265 18 0 15 -15 17 -177 17 -263 1
-346 6 -363 21 -8 7 -25 22 -38 34 -12 11 -39 25 -60 30 -24 6 79 7 301 4 215
-4 337 -3 337 4 0 5 -24 12 -52 15 -67 8 -605 10 -617 2 -5 -3 -12 -1 -16 5
-3 5 -2 10 4 10 5 0 12 13 16 30 4 16 11 30 16 30 14 0 11 -38 -3 -43 -8 -3
-6 -6 5 -6 9 -1 17 6 17 14 0 8 8 30 17 50 15 31 21 35 54 35 21 0 41 -4 44
-10 3 -5 0 -10 -7 -10 -9 -1 -8 -3 2 -10 9 -5 99 -11 200 -15 102 -3 215 -8
253 -11 38 -3 67 -1 67 4 0 8 -137 32 -532 94 -56 9 -68 14 -68 29 0 11 5 19
10 19 6 0 10 11 10 25 0 30 5 30 67 8 26 -9 55 -17 63 -18 8 -1 22 -5 30 -8
18 -7 233 -37 237 -33 3 3 -283 84 -317 89 -14 3 -30 1 -35 -4 -6 -4 -17 -4
-25 1 -12 7 -11 15 6 49 10 23 23 41 28 41 31 0 388 -116 446 -145 77 -39 88
-42 70 -20 -7 8 -18 15 -25 15 -25 0 -390 313 -390 335 0 26 36 0 186 -135
157 -140 212 -180 170 -122 -11 15 -82 92 -159 171 -140 144 -140 144 -118
162 20 18 22 17 41 -9 11 -15 43 -54 71 -87 28 -34 92 -112 143 -174 50 -62
91 -108 91 -103 0 16 -203 281 -225 295 -15 8 -89 107 -84 111 26 18 107 65
117 68 7 2 48 -65 102 -167 67 -127 89 -162 89 -140 -1 40 -24 101 -37 98 -7
-2 -9 4 -5 14 4 11 3 14 -5 9 -7 -4 -12 -2 -12 4 0 7 -10 25 -21 42 -24 34
-82 149 -77 154 7 6 101 44 104 42 1 -2 14 -46 27 -98 19 -71 25 -86 26 -59 1
19 -4 62 -10 94 -8 43 -8 60 0 63 6 2 11 13 11 25 0 17 -2 19 -9 8 -10 -16
-41 -24 -41 -11 0 5 6 11 13 14 6 3 1 3 -12 0 -13 -3 -21 -2 -18 3 3 5 -3 9
-13 9 -18 0 -18 -1 -2 -19z m-140 -371 c165 -166 206 -221 64 -85 -48 46 -122
115 -164 153 -68 60 -85 86 -59 86 4 0 75 -69 159 -154z m-21 -104 c-10 -2
-17 -7 -17 -12 0 -5 6 -7 14 -4 8 3 17 1 20 -4 4 -7 -38 -9 -64 -3 -2 0 6 8
18 17 13 9 19 20 15 27 -4 7 1 5 12 -3 16 -13 16 -15 2 -18z m-192 -222 c-3
-5 -19 -10 -36 -10 -16 0 -29 5 -29 10 0 6 16 10 36 10 21 0 33 -4 29 -10z
m-250 -131 c5 -5 -22 -8 -75 -7 -75 1 -79 2 -35 8 l50 6 -40 6 c-22 3 -11 3
25 1 36 -2 69 -8 75 -14z m-327 -196 c-15 -2 -42 -2 -60 0 -18 2 -6 4 27 4 33
0 48 -2 33 -4z"/>
<path d="M2571 1625 c2 -6 37 -65 78 -133 41 -67 72 -125 69 -128 -3 -2 -31
37 -63 88 -58 95 -101 148 -119 148 -5 0 2 -12 16 -27 13 -16 62 -86 108 -156
45 -70 85 -126 87 -123 3 3 -2 15 -11 28 -20 28 -21 50 -1 24 29 -38 14 -3
-46 109 -33 63 -74 129 -91 147 -17 18 -29 28 -27 23z"/>
<path d="M1810 1529 c0 -5 -5 -7 -12 -3 -8 5 -9 2 -5 -10 6 -16 2 -18 -32 -14
-22 2 -38 2 -36 -1 6 -5 -26 -65 -38 -73 -6 -4 -19 -2 -29 3 -12 7 -23 5 -38
-8 -24 -21 -25 -41 -3 -72 10 -15 11 -21 3 -16 -9 5 -11 3 -6 -6 3 -8 9 -22
12 -32 4 -10 12 -16 19 -13 20 7 47 -33 41 -59 -3 -13 -1 -36 6 -52 6 -15 10
-32 9 -37 -1 -4 4 -15 11 -24 11 -13 11 -14 0 -8 -9 6 -11 1 -8 -18 3 -19 0
-26 -12 -27 -14 0 -13 -2 3 -9 17 -7 17 -9 3 -9 -10 -1 -18 -6 -18 -12 0 -5 6
-7 13 -3 8 5 8 2 -2 -9 -12 -15 -11 -17 3 -17 8 0 22 13 31 30 17 32 21 120 5
120 -6 0 -10 28 -10 64 0 60 -1 64 -26 70 -19 5 -32 21 -50 63 -17 38 -22 59
-15 66 7 7 12 5 17 -6 5 -15 8 -15 21 -1 22 22 27 11 12 -30 -12 -33 -11 -38
7 -57 17 -16 30 -19 70 -16 39 3 44 5 27 11 -16 6 -24 19 -29 45 -3 20 -10 53
-14 73 -4 20 -5 39 -2 43 3 3 24 5 46 5 39 0 41 2 42 30 1 17 -3 30 -7 30 -5
0 -9 -5 -9 -11z m-96 -151 c-4 -6 0 -14 7 -19 11 -7 11 -9 1 -9 -8 0 -10 -5
-6 -12 6 -10 5 -10 -8 0 -16 13 -13 66 3 56 5 -3 6 -10 3 -16z"/>
<path d="M1770 1430 c-6 -10 -10 -25 -9 -32 0 -7 4 -3 9 10 10 25 29 28 49 10
11 -10 14 -10 18 0 3 6 14 12 26 12 39 0 5 15 -39 17 -34 1 -46 -3 -54 -17z"/>
<path d="M1820 1390 c0 -5 -9 -10 -20 -10 -11 0 -20 -4 -20 -10 0 -15 87 -12
96 3 4 6 3 9 -1 4 -5 -4 -19 0 -32 8 -13 9 -23 11 -23 5z"/>
<path d="M2265 1311 c-15 -6 29 -24 175 -70 107 -35 215 -69 239 -77 24 -7 48
-11 54 -7 6 3 7 1 3 -5 -4 -7 -2 -12 4 -12 24 0 1 26 -46 52 -55 31 -72 35
-54 14 10 -13 7 -13 -17 -6 -15 6 -66 21 -113 34 -47 14 -77 25 -67 25 9 1 17
6 17 12 0 6 -7 9 -15 5 -8 -3 -15 -1 -15 3 0 5 -10 7 -22 3 -16 -4 -19 -2 -13
8 6 10 0 11 -28 6 -20 -4 -38 -2 -42 3 -3 6 -13 7 -22 4 -11 -4 -14 -3 -9 5 8
14 0 14 -29 3z"/>
<path d="M1780 1280 c-11 -7 -2 -10 33 -10 30 0 46 4 42 10 -8 13 -55 13 -75
0z"/>
<path d="M1787 1223 c18 -2 50 -2 70 0 21 2 7 4 -32 4 -38 0 -55 -2 -38 -4z"/>
<path d="M1787 1203 c18 -2 50 -2 70 0 21 2 7 4 -32 4 -38 0 -55 -2 -38 -4z"/>
<path d="M2190 1201 c22 -13 184 -48 350 -75 80 -14 160 -28 178 -32 28 -6 32
-4 32 15 0 11 -5 21 -11 21 -5 0 -7 -6 -4 -12 4 -7 1 -6 -7 3 -19 23 -86 36
-322 64 -230 28 -238 28 -216 16z"/>
<path d="M1260 1179 c0 -5 14 -9 30 -9 31 0 41 -16 15 -26 -27 -11 -16 -23 23
-26 l37 -3 0 -55 0 -55 -40 3 c-22 1 -51 5 -63 8 -15 3 -21 1 -17 -6 4 -6 -4
-10 -18 -10 -24 0 -25 3 -24 60 l2 60 38 0 c20 0 37 3 37 6 0 10 -42 44 -54
44 -6 0 -4 -5 4 -11 12 -9 11 -10 -8 -6 -13 3 -20 1 -16 -5 4 -6 1 -14 -6 -18
-16 -10 -31 -113 -18 -121 5 -3 3 -9 -6 -12 -9 -4 -16 -16 -16 -27 0 -12 -4
-19 -9 -16 -5 3 -11 -1 -14 -8 -3 -8 -1 -17 6 -20 9 -3 7 -9 -4 -18 -19 -16
-20 -26 -7 -53 6 -11 7 -17 3 -12 -5 4 -14 -6 -22 -23 -15 -36 1 -74 27 -65
12 5 13 4 3 -6 -16 -16 -17 -29 -2 -29 5 0 8 3 6 8 -3 4 1 13 9 19 8 8 15 9
19 3 4 -6 10 -8 14 -5 12 7 2 -67 -11 -82 -6 -7 -16 -13 -23 -13 -16 0 -39
-45 -31 -59 4 -6 2 -11 -3 -11 -15 0 -14 -33 2 -49 9 -11 9 -13 0 -7 -9 5 -13
0 -13 -13 0 -20 -6 -21 -96 -21 -95 0 -151 -14 -123 -30 9 -6 10 -13 3 -22 -6
-7 -10 -27 -10 -44 l1 -31 -78 -2 c-52 -1 -84 2 -95 11 -12 10 -14 10 -8 1 12
-21 -18 -15 -42 7 -12 11 -26 20 -32 20 -6 0 1 18 15 40 34 54 32 80 -10 123
-35 36 -53 48 -40 27 3 -5 3 -10 -2 -10 -4 0 -16 14 -25 30 -16 28 -48 42 -48
20 0 -5 -6 -7 -14 -4 -8 3 -17 0 -22 -7 -5 -9 -2 -10 10 -6 14 6 15 3 6 -14
-6 -11 -15 -17 -20 -14 -19 12 -77 -23 -90 -54 -11 -27 -10 -37 5 -71 10 -22
23 -40 29 -40 6 0 5 -4 -2 -9 -8 -4 -14 -12 -15 -17 -1 -5 -8 -8 -15 -8 -10 2
-10 -1 0 -14 11 -13 10 -15 -4 -9 -13 4 -15 2 -11 -10 5 -12 2 -15 -10 -10 -8
3 -21 -1 -27 -9 -9 -10 -9 -14 -1 -14 7 0 6 -9 -4 -24 -13 -19 -14 -29 -6 -45
8 -14 8 -21 -2 -24 -9 -4 -9 -6 1 -6 6 -1 12 -9 12 -18 1 -32 23 -51 58 -48
17 2 32 -1 32 -6 0 -5 -6 -8 -12 -6 -8 1 -12 -7 -11 -20 2 -13 -1 -23 -6 -23
-5 0 -11 -9 -14 -20 -8 -31 5 -23 35 20 20 29 26 49 24 77 -2 21 -4 46 -5 56
0 10 -9 17 -21 17 -20 0 -20 0 1 21 19 19 20 23 6 37 -22 21 -47 0 -47 -39 0
-23 6 -32 28 -41 24 -10 25 -12 7 -15 -11 -3 -28 -15 -37 -26 -18 -22 -18 -22
-17 13 0 19 -2 48 -6 63 -7 25 -2 33 41 72 33 31 57 45 76 45 22 0 28 5 28 21
0 16 -5 20 -27 17 -23 -2 -28 1 -26 17 1 10 -7 25 -18 33 -43 30 -6 82 59 82
29 0 33 3 32 23 -4 39 0 46 19 44 18 -1 19 -31 0 -43 -21 -12 -6 -25 25 -23
58 5 99 -50 61 -81 -8 -7 -15 -21 -15 -31 0 -14 -7 -19 -30 -19 -24 0 -30 -4
-30 -21 0 -19 4 -21 33 -16 27 4 37 1 52 -19 17 -23 22 -24 143 -24 106 0 123
-2 113 -14 -7 -9 -8 -17 -2 -20 11 -7 33 86 22 94 -5 3 -6 20 -3 39 l5 33 117
-3 117 -4 1 55 c0 76 7 113 21 118 6 2 10 -2 9 -10 -2 -9 10 -13 42 -14 39 -1
40 -1 8 3 -40 4 -47 13 -25 32 17 14 23 136 7 146 -6 4 -11 30 -10 59 1 28 1
60 1 71 -2 19 -2 19 -12 2 -6 -10 -8 -24 -5 -32 2 -7 0 -27 -7 -44 -9 -24 -9
-36 1 -51 18 -30 15 -46 -6 -27 -14 13 -21 14 -30 5 -18 -18 -27 0 -9 19 8 10
18 36 21 58 3 22 8 59 12 82 l7 43 38 -6 c30 -5 40 -3 45 10 8 20 54 22 54 1
0 -11 10 -14 44 -11 l44 3 11 -55 c6 -30 11 -67 11 -81 1 -26 36 -79 46 -69 2
3 0 17 -6 32 -5 15 -10 40 -10 56 0 16 -4 31 -9 34 -5 4 -8 14 -6 24 1 9 -2
23 -8 30 -5 6 -6 12 -2 12 4 0 -3 9 -16 21 -17 14 -19 19 -7 15 22 -7 34 12
19 27 -9 9 -10 7 -5 -8 7 -18 6 -18 -9 -6 -11 9 -17 28 -17 56 0 28 -6 47 -19
59 -10 9 -17 27 -15 41 1 14 -2 23 -6 20 -5 -3 -6 -13 -3 -23 6 -15 4 -15 -15
2 -23 20 -72 30 -72 15z"/>
<path d="M1253 1092 c9 -2 17 -10 17 -18 0 -8 5 -14 10 -14 6 0 10 -4 10 -10
0 -5 -14 -7 -31 -5 -22 3 -29 1 -21 -7 17 -17 83 -12 101 8 15 17 15 17 -1 5
-21 -15 -38 -7 -38 19 0 11 9 20 23 23 12 2 -3 4 -33 3 -30 0 -47 -2 -37 -4z"/>
<path d="M1234 959 c-16 -5 -14 -7 6 -10 14 -3 39 -2 55 1 l30 6 -37 5 c-20 3
-45 2 -54 -2z"/>
<path d="M1230 885 c0 -40 2 -45 23 -44 16 1 18 2 5 6 -32 8 -19 18 22 18 43
0 54 -11 18 -18 l-23 -4 23 -2 c15 -1 25 6 31 22 14 37 2 50 -37 43 -21 -3
-31 -2 -26 4 5 4 23 10 39 13 19 2 11 5 -22 6 l-53 1 0 -45z"/>
<path d="M1248 823 c17 -2 47 -2 65 0 17 2 3 4 -33 4 -36 0 -50 -2 -32 -4z"/>
<path d="M1250 720 c0 -40 4 -70 10 -70 6 0 10 -9 10 -20 0 -11 5 -20 10 -20
6 0 10 6 10 13 0 7 6 19 12 25 7 7 14 42 15 77 l3 65 -35 0 -35 0 0 -70z"/>
<path d="M2198 663 c23 -2 61 -2 85 0 23 2 4 4 -43 4 -47 0 -66 -2 -42 -4z"/>
<path d="M1718 643 c23 -2 61 -2 85 0 23 2 4 4 -43 4 -47 0 -66 -2 -42 -4z"/>
<path d="M1973 643 c64 -2 170 -2 235 0 64 1 11 3 -118 3 -129 0 -182 -2 -117
-3z"/>
<path d="M1185 590 c-11 -4 68 -6 175 -3 107 3 197 7 199 9 8 8 -354 3 -374
-6z"/>
<path d="M1383 553 c37 -2 97 -2 135 0 37 2 6 3 -68 3 -74 0 -105 -1 -67 -3z"/>
<path d="M480 528 c13 -15 13 -51 1 -63 -6 -6 10 -10 44 -10 34 0 51 4 45 10
-6 5 -10 19 -10 32 0 19 -5 23 -33 23 -18 0 -38 5 -45 10 -9 7 -9 7 -2 -2z"/>
<path d="M1161 536 c2 -2 99 -6 214 -8 130 -4 178 -2 125 2 -87 8 -347 13
-339 6z"/>
<path d="M1848 505 c-3 -3 -37 -6 -77 -6 -53 -1 -71 -4 -71 -14 0 -8 5 -17 11
-20 6 -4 8 -14 4 -23 -3 -9 -3 -13 1 -9 4 4 12 3 18 -2 15 -12 87 -1 79 12 -4
6 3 8 18 4 13 -3 60 -8 104 -10 58 -3 66 -3 30 3 -56 8 437 16 653 11 114 -3
132 -1 132 12 0 9 -8 18 -17 20 -17 4 -17 5 0 6 9 0 17 6 17 11 0 10 -892 15
-902 5z m151 -21 c2 -2 -41 -4 -97 -4 -61 0 -102 -4 -102 -10 0 -13 -37 -13
-45 0 -4 6 -11 7 -17 4 -6 -4 -8 -3 -5 3 4 5 39 11 79 12 40 1 74 4 76 6 5 4
105 -6 111 -11z m258 3 c-1 -5 -6 -8 -10 -8 -4 1 -25 1 -47 1 -22 0 -40 4 -40
8 0 5 22 8 50 8 27 -1 49 -5 47 -9z"/>
<path d="M1440 488 c0 -4 22 -7 50 -6 28 1 44 6 37 10 -15 10 -87 7 -87 -4z"/>
<path d="M1373 463 c37 -2 96 -2 130 0 34 2 4 3 -68 3 -71 0 -99 -1 -62 -3z"/>
<path d="M2668 433 c18 -2 45 -2 60 0 15 2 0 4 -33 4 -33 0 -45 -2 -27 -4z"/>
<path d="M1685 410 c3 -6 -5 -10 -19 -10 -14 0 -29 -7 -34 -16 -8 -15 -10 -15
-15 0 -6 14 -43 16 -347 16 -187 0 -340 -3 -340 -7 1 -27 29 -29 340 -31 179
-2 340 -5 358 -8 34 -7 38 -17 22 -58 -6 -16 -6 -26 0 -26 5 0 7 -6 5 -12 -4
-10 -108 -12 -484 -10 -432 2 -479 1 -485 -14 -3 -9 -3 -21 1 -27 5 -7 8 -25
8 -41 0 -16 6 -31 14 -34 10 -3 12 2 8 19 -14 54 -25 53 458 45 269 -4 452 -3
458 2 7 5 21 6 32 1 19 -7 19 -8 -3 -8 -25 -1 -28 -6 -36 -69 -6 -40 -5 -43
14 -37 11 3 20 2 20 -3 0 -18 -1008 -27 -1026 -10 -4 4 -1 14 6 23 8 10 9 15
1 15 -6 0 -11 7 -11 15 0 8 8 15 17 15 13 0 14 3 5 12 -19 19 -14 30 9 23 15
-5 19 -4 15 4 -4 6 -15 11 -24 12 -14 0 -13 2 3 9 19 8 19 9 -2 9 -28 1 -31
21 -3 21 27 0 25 18 -2 23 l-23 4 23 2 c26 1 30 32 7 51 -24 20 -35 2 -35 -56
0 -30 -4 -54 -10 -54 -15 0 -11 -93 5 -114 20 -27 3 -36 -44 -25 -21 5 -61 5
-89 0 -33 -5 -55 -4 -62 3 -7 7 -10 3 -10 -13 0 -12 4 -20 9 -16 5 3 16 -1 24
-10 13 -12 16 -12 20 -1 4 11 25 13 86 11 45 -2 79 1 76 5 -2 4 227 7 510 6
283 0 515 1 515 5 0 3 248 3 550 1 485 -4 550 -3 550 11 0 13 -67 15 -539 19
-297 2 -543 6 -546 10 -3 3 -9 22 -12 42 -5 31 -3 35 11 30 9 -3 24 -3 33 0 9
4 250 6 535 6 457 0 518 1 518 15 0 12 -15 15 -72 16 -123 2 -353 7 -578 13
-118 3 -263 5 -322 6 l-107 0 4 53 c5 68 7 77 16 77 4 0 7 16 6 35 -1 19 -5
35 -10 35 -4 0 -5 -4 -2 -10z"/>
<path d="M1983 393 c141 -2 373 -2 515 0 141 1 25 2 -258 2 -283 0 -399 -1
-257 -2z"/>
<path d="M502 326 c-21 -11 -22 -14 -7 -26 14 -11 19 -11 33 3 23 23 4 40 -26
23z"/>
<path d="M1688 296 l-5 -23 360 -6 c198 -4 438 -7 534 -7 l173 0 0 28 0 27
-529 2 -529 3 -4 -24z"/>
<path d="M693 275 c0 -8 4 -15 9 -15 4 0 8 4 8 9 0 6 15 12 33 14 29 3 28 4
-9 5 -30 2 -41 -2 -41 -13z"/>
<path d="M893 268 c-2 -5 49 -7 114 -6 121 1 109 5 -30 10 -44 2 -81 0 -84 -4z"/>
<path d="M1458 263 c23 -2 59 -2 80 0 20 2 1 4 -43 4 -44 0 -61 -2 -37 -4z"/>
<path d="M2383 223 c71 -2 183 -2 250 0 67 1 10 3 -128 3 -137 0 -192 -2 -122
-3z"/>
<path d="M487 201 c-6 -13 -1 -97 7 -109 16 -26 28 -11 21 28 -6 36 -5 39 12
33 10 -3 24 -10 31 -16 9 -7 12 0 12 30 0 39 0 39 -40 40 -22 0 -41 -2 -43 -6z"/>
<path d="M2598 113 c23 -2 61 -2 85 0 23 2 4 4 -43 4 -47 0 -66 -2 -42 -4z"/>
<path d="M958 103 c18 -2 45 -2 60 0 15 2 0 4 -33 4 -33 0 -45 -2 -27 -4z"/>
<path d="M1098 103 c17 -2 47 -2 65 0 17 2 3 4 -33 4 -36 0 -50 -2 -32 -4z"/>
</g>
</svg>
